<?xml version="1.0" standalone="no"?><!DOCTYPE svg PUBLIC "-//W3C//DTD SVG 1.1//EN" "http://www.w3.org/Graphics/SVG/1.1/DTD/svg11.dtd"><svg t="1612764012547" class="icon" viewBox="0 0 1024 1024" version="1.1" xmlns="http://www.w3.org/2000/svg" p-id="2145" xmlns:xlink="http://www.w3.org/1999/xlink" width="200" height="200"><defs><style type="text/css"></style></defs><path d="M440 112m72 0l0 0q72 0 72 72l0 0q0 72-72 72l0 0q-72 0-72-72l0 0q0-72 72-72Z" p-id="2146"></path><path d="M440 440m72 0l0 0q72 0 72 72l0 0q0 72-72 72l0 0q-72 0-72-72l0 0q0-72 72-72Z" p-id="2147"></path><path d="M440 768m72 0l0 0q72 0 72 72l0 0q0 72-72 72l0 0q-72 0-72-72l0 0q0-72 72-72Z" p-id="2148"></path></svg>