<?xml version="1.0" encoding="utf-8"?>
<svg version="1.1" id="folader" x="0px" y="0px" viewBox="0 0 40 40" xml:space="preserve">
<g style="opacity:0.6;fill:#36aefd">
	<path class="st1" d="M31.2,18.6H9.3c-0.5,0-0.9-0.4-0.9-0.9V7.9C8.4,7.4,8.8,7,9.3,7h21.9c0.5,0,0.9,0.4,0.9,0.9v9.9
		C32.1,18.2,31.7,18.6,31.2,18.6z"/>
</g>
<g style='fill:#36aefd;'>
	<path class="st2" d="M19.6,15.7l-2.5-5.1c-0.3-0.7-1-1.1-1.8-1.1H7.9c-0.9,0-1.6,0.7-1.6,1.6v18.8c0,0.9,0.7,1.6,1.6,1.6h24.7
		c0.9,0,1.6-0.7,1.6-1.6V17.5c0-1-0.8-1.7-1.7-1.7H19.6z"/>
</g>
</svg>
