<?xml version="1.0" encoding="utf-8"?>
<!-- Generator: Adobe Illustrator 21.0.0, SVG Export Plug-In . SVG Version: 6.00 Build 0)  -->
<svg version="1.0" id="图层_1" xmlns="http://www.w3.org/2000/svg" xmlns:xlink="http://www.w3.org/1999/xlink" x="0px" y="0px"
	 viewBox="0 0 60 30" style="enable-background:new 0 0 60 30;" xml:space="preserve">
<!-- <style type="text/css">
	.st0{}
	.st1{fill:#FF7900;}
	.st2{fill:#00FF00;stroke:#00FF00;stroke-width:0.1;stroke-miterlimit:10;}
</style> -->
<g>
	<path class="st0" style='fill:#007AFF;' d="M5.6,13.9c-0.5,0.1-1.4,0.2-2.8,0.5c0,0.4-0.1,0.7-0.2,0.8c-0.1,0.1-0.2,0-0.3-0.4c-0.1-0.4-0.3-0.9-0.3-1.7
		c-0.1-0.8-0.3-1.3-0.5-1.6c-0.3-0.3-0.3-0.5,0-0.5c0.3,0,0.5,0,0.8,0.1c0.3,0.1,0.7,0,1.3-0.2c0.6-0.2,1-0.3,1.2-0.5
		c0.2-0.1,0.4-0.2,0.7-0.1c0.3,0,0.6,0.2,1,0.5c0.4,0.3,0.5,0.6,0.1,0.9c-0.4,0.3-0.7,0.8-0.9,1.5C6.1,13.5,6.1,13.8,5.6,13.9z
		 M4.8,13.3C4.9,12.6,5,12.1,5,11.8c0-0.4,0-0.6-0.1-0.6c-0.1,0-0.3,0-0.6,0.1c-0.3,0.1-0.8,0.2-1.5,0.3c0,0.8,0.1,1.6,0.1,2.3
		C3.3,13.8,4,13.6,4.8,13.3z M7.5,18.1c0,1.3-0.2,2.1-0.4,2.3c-0.2,0.3-0.4,0.2-0.6-0.2c-0.2-0.4-0.2-0.9-0.1-1.3
		c0.1-0.4,0.2-1,0.3-1.8c0.1-0.8,0-1.5-0.1-1.8c-0.2-0.4-0.1-0.6,0.1-0.5C7,14.9,7.2,14.9,7.5,15c0.3,0,1.2-0.1,2.9-0.3
		c1.7-0.3,2.7-0.5,3.1-0.7c0.3-0.2,0.7-0.2,1-0.1c0.3,0.1,0.7,0.2,1.1,0.4c0.4,0.2,0.5,0.5,0.2,0.9c-0.2,0.4-0.3,1.2-0.2,2.4
		c0.1,1.2,0,2.1-0.1,2.7c-0.2,0.7-0.5,1.2-0.9,1.5s-0.7,0.3-0.8,0c-0.1-0.3-0.4-0.7-0.9-1.2s-0.5-0.6,0-0.5c0.5,0.1,0.9,0.2,1.1,0.1
		c0.3,0,0.4-0.4,0.5-1.1c0-0.7,0.1-1.5,0-2.3c0-0.8-0.1-1.4-0.2-1.7c-0.1-0.3-0.4-0.4-0.9-0.4c-0.5,0-1.2,0.1-2.3,0.3
		c-1,0.2-2.3,0.4-3.7,0.6C7.6,16,7.5,16.9,7.5,18.1z M11.1,7.9c0.6-0.1,1.1-0.3,1.4-0.3c0.3-0.1,0.7,0,1.2,0.2
		c0.4,0.2,0,0.5-1.1,0.7C11.4,8.8,10.5,9,9.8,9.1C9.1,9.2,8.5,9.2,8.1,9c-0.4-0.2-0.4-0.3,0-0.4C8.6,8.5,9,8.4,9.5,8.3
		C10,8.2,10.5,8.1,11.1,7.9z M12.9,12.8c-0.6,0-1.8,0.2-3.4,0.4c-0.1,0.5-0.2,0.6-0.4,0.3c-0.2-0.3-0.3-0.7-0.5-1.3
		c-0.2-0.5-0.3-0.9-0.6-1.2c-0.2-0.3-0.2-0.4,0.1-0.4c0.3,0,0.5,0.1,0.7,0.1c0.2,0.1,0.7,0,1.5-0.2c0.8-0.2,1.4-0.4,1.7-0.6
		c0.3-0.2,0.6-0.3,0.9-0.1c0.3,0.1,0.6,0.3,0.9,0.5c0.3,0.2,0.3,0.4,0,0.6c-0.3,0.2-0.7,0.6-0.9,1.1C13.6,12.6,13.5,12.8,12.9,12.8z
		 M12.5,17.3c0.3-0.1,0.7,0,0.9,0.2c0.3,0.3,0.2,0.4-0.3,0.5c-0.4,0.1-1.1,0.2-2,0.3c0,0.8-0.1,1.5-0.2,2.1
		c-0.1,0.6-0.3,0.7-0.6,0.3s-0.4-0.7-0.2-1c0.1-0.3,0.2-0.8,0.1-1.3c-0.3,0-0.6,0.1-1,0.1c-0.4,0-0.7,0-1-0.2
		C7.9,18.2,8,18.1,8.4,18c0.4,0,1.2-0.2,2.4-0.4c0.5-1.1,0.7-1.8,0.6-2.2c-0.1-0.4,0.2-0.4,0.8-0.1c0.6,0.3,0.8,0.5,0.5,0.7
		c-0.3,0.2-0.7,0.7-1.3,1.5C11.8,17.5,12.2,17.4,12.5,17.3z M9.5,15.9c0.6,0.2,0.9,0.5,0.7,1c-0.1,0.5-0.5,0.4-1-0.3
		C8.8,16,8.9,15.8,9.5,15.9z M9.4,12.8c1.4-0.3,2.4-0.4,2.8-0.5c0.1-0.6,0.1-1,0.1-1.2c0-0.2-0.2-0.3-0.5-0.3c-0.2,0-0.5,0-0.8,0.1
		s-0.9,0.2-1.9,0.4C9.3,11.9,9.4,12.4,9.4,12.8z"/>
	<path class="st1" style='fill:#FF7900;' d="M24.7,10.2c-0.1,0.3-0.2,1-0.3,2.2s-0.2,2.2-0.5,3.3c-0.2,1.1-0.7,2.1-1.4,3c-0.7,0.9-1.5,1.5-2.5,2
		c-0.9,0.4-1.1,0.4-0.4-0.1s1.4-1.2,2.1-2.2c0.7-1,1.2-2.2,1.4-3.7c0.2-1.5,0.3-2.6,0.2-3.3c0-0.7-0.2-1.2-0.3-1.6
		c-0.2-0.4,0.1-0.5,0.8-0.3C24.5,9.6,24.8,9.9,24.7,10.2z M28.6,9.2c-0.1,0.2-0.3,0.7-0.5,1.6c-0.2,0.9-0.3,2.3-0.4,4.2
		s0.1,3.1,0.5,3.5c0.4,0.5,1,0.7,2,0.8c0.9,0.1,1.6,0,2.1-0.2c0.5-0.2,0.8-0.4,0.9-0.6c0.1-0.2,0.2-0.7,0.3-1.5
		c0.1-0.8,0.2-0.7,0.3,0.1c0.1,0.9,0.3,1.5,0.5,2c0.3,0.4,0,0.8-0.6,1c-0.7,0.2-1.6,0.4-2.8,0.4c-1.2,0-2.1-0.2-2.8-0.6
		c-0.7-0.4-1.1-1.3-1.2-2.8c-0.1-1.4,0-3.1,0.1-4.9s0.1-3.1-0.2-3.6c-0.2-0.5-0.1-0.7,0.4-0.6s0.8,0.3,1.1,0.6
		C28.7,8.8,28.8,9,28.6,9.2z"/>
	<path class="st1" style='fill:#FF7900;' d="M43.4,11"/>
</g>
<g>
	<g>
		<path class="st2" style='fill:#00FF00;stroke:#00FF00;stroke-width:0.1;stroke-miterlimit:10;' d="M46.2,7.4c0.1-0.4,0.5-0.9,1.1-0.9c0.6,0,1,0.5,1,1.1c0.1,0,0.2,0,0.4,0c0-0.7-0.6-1.4-1.3-1.4
			c-0.7,0-1.3,0.5-1.4,1.3c0,0.2,0,0.3,0,0.4c0.1,0,0.1,0,0.2,0C46.2,7.7,46.2,7.5,46.2,7.4z"/>
		<path class="st2" style='fill:#00FF00;stroke:#00FF00;stroke-width:0.1;stroke-miterlimit:10;' d="M46.6,8.6c-0.2-0.1-0.2-0.3-0.3-0.5c-0.1,0-0.1,0-0.2,0C46.3,8.4,46.6,8.6,46.6,8.6z"/>
		<path class="st2" style='fill:#00FF00;stroke:#00FF00;stroke-width:0.1;stroke-miterlimit:10;' d="M48.3,7.8c-0.1,0.5-0.7,0.7-0.7,0.7c-0.2,0.3,0.1,0.3,0.1,0.3c0.6-0.1,0.9-0.5,1-1.1c-0.1,0-0.1,0-0.2,0
			C48.4,7.8,48.4,7.8,48.3,7.8z"/>
		<path class="st2" style='fill:#00FF00;stroke:#00FF00;stroke-width:0.1;stroke-miterlimit:10;' d="M54.6,10.1c-1.6-1.5-3.4-2.4-5.9-2.5c0,0,0,0,0,0c0,0.1,0,0.2,0,0.2c2.7,0,4.9,1.7,4.9,1.7L54.6,10.1z"/>
		<path class="st2" style='fill:#00FF00;stroke:#00FF00;stroke-width:0.1;stroke-miterlimit:10;' d="M41.7,10.6l0.2,0.1l0.4-0.4c1.3-1.1,2.4-1.8,3.8-2.1C46.1,8.1,46,8,46,7.9C43.4,8.6,41.7,10.6,41.7,10.6z"/>
		<path class="st2" style='fill:#00FF00;stroke:#00FF00;stroke-width:0.1;stroke-miterlimit:10;' d="M46,7.9c0,0.1,0.1,0.2,0.1,0.2c0.1,0,0.1,0,0.2,0c0-0.1,0-0.2-0.1-0.2C46.2,7.9,46.1,7.9,46,7.9z"/>
		<path class="st2" style='fill:#00FF00;stroke:#00FF00;stroke-width:0.1;stroke-miterlimit:10;' d="M48.7,7.6c-0.1,0-0.2,0-0.4,0c0,0,0,0,0,0.1c0,0.1,0,0.1-0.1,0.2c0.1,0,0.1,0,0.2,0c0.1,0,0.1,0,0.2,0
			C48.7,7.8,48.7,7.7,48.7,7.6C48.7,7.6,48.7,7.6,48.7,7.6z"/>
	</g>
	<path class="st2" style='fill:#00FF00;stroke:#00FF00;stroke-width:0.1;stroke-miterlimit:10;' d="M45.3,10.2c0,0-1-0.6-2.5-0.2c-1.5,0.4-3.9,2.5-3.8,5.6s1.8,4.9,2.4,5l0.1-0.3c0,0-2.3-1.8-2-5
		C39.7,12,42,9.6,45.3,10.2z"/>
	<path class="st2" style='fill:#00FF00;stroke:#00FF00;stroke-width:0.1;stroke-miterlimit:10;' d="M48.1,10.3c0,0,2-1.3,4-1.1c1.9,0.3,3.9,1.1,5.2,4.2c1.3,3.2-0.1,7.5-3.9,8.1l0.1-0.4c0,0,4.5-1.3,3.7-6.4
		C56.4,9.7,51.3,8.5,48.1,10.3z"/>
	<path class="st2" style='fill:#00FF00;stroke:#00FF00;stroke-width:0.1;stroke-miterlimit:10;' d="M44,21.1c0,0,2.8,0.3,4.1-0.8c0,0,0.3-0.2,0.2,0.1c0,0-0.5,0.7-1.9,0.9C44.9,21.5,44.5,21.2,44,21.1z"/>
	<path class="st2" style='fill:#00FF00;stroke:#00FF00;stroke-width:0.1;stroke-miterlimit:10;' d="M47.4,19.8c0,0,1.2,1.4,3.2,1.4c0,0,0.2-0.1,0-0.2c0,0-1.5,0.1-3.1-1.3C47.5,19.7,47.4,19.6,47.4,19.8z"/>
	<path class="st2" style='fill:#00FF00;stroke:#00FF00;stroke-width:0.1;stroke-miterlimit:10;' d="M52.3,20c-1.3-0.2-1.5,0.5-1.5,0.5s-0.6,1.5,0.8,1.6c1.3,0.1,1.7-0.3,1.9-0.6C53.7,21.1,53.6,20.1,52.3,20z
		 M51.6,21.7c-0.8-0.1-0.8-0.5-0.6-1c0.2-0.5,0.7-0.5,0.7-0.5c0.8-0.1,1.7,0.4,1.6,0.8C53.2,21.6,52.3,21.9,51.6,21.7z"/>
	<path class="st2" style='fill:#00FF00;stroke:#00FF00;stroke-width:0.1;stroke-miterlimit:10;' d="M43,19.6c-1.3-0.2-1.5,0.5-1.5,0.5s-0.6,1.5,0.8,1.6c1.3,0.1,1.7-0.3,1.9-0.6C44.3,20.7,44.2,19.8,43,19.6z
		 M42.2,21.4c-0.8-0.1-0.8-0.5-0.6-1c0.2-0.5,0.7-0.5,0.7-0.5c0.8-0.1,1.7,0.4,1.6,0.8C43.8,21.2,43,21.5,42.2,21.4z"/>
</g>
</svg>
